<svg width="25" height="24" viewBox="0 0 25 24" fill="none" xmlns="http://www.w3.org/2000/svg">
<path d="M16.625 4C18.8 4.01211 19.9779 4.10856 20.7463 4.87694C21.625 5.75562 21.625 7.16983 21.625 9.99826V15.9983C21.625 18.8267 21.625 20.2409 20.7463 21.1196C19.8676 21.9983 18.4534 21.9983 15.625 21.9983H9.625C6.79657 21.9983 5.38236 21.9983 4.50368 21.1196C3.625 20.2409 3.625 18.8267 3.625 15.9983V9.99826C3.625 7.16983 3.625 5.75562 4.50368 4.87694C5.27206 4.10856 6.44997 4.01211 8.625 4" stroke="#A5AFB5" stroke-width="1.5"/>
<path d="M8.625 14H16.625" stroke="#A5AFB5" stroke-width="1.5" stroke-linecap="round"/>
<path d="M7.625 10.5H17.625" stroke="#A5AFB5" stroke-width="1.5" stroke-linecap="round"/>
<path d="M9.625 17.5H15.625" stroke="#A5AFB5" stroke-width="1.5" stroke-linecap="round"/>
<path d="M8.625 3.5C8.625 2.67157 9.29657 2 10.125 2H15.125C15.9534 2 16.625 2.67157 16.625 3.5V4.5C16.625 5.32843 15.9534 6 15.125 6H10.125C9.29657 6 8.625 5.32843 8.625 4.5V3.5Z" stroke="#A5AFB5" stroke-width="1.5"/>
</svg>
