<svg width="25" height="24" viewBox="0 0 25 24" fill="none" xmlns="http://www.w3.org/2000/svg">
<path fill-rule="evenodd" clip-rule="evenodd" d="M8.17004 7.62476L6.02004 9.237C5.40996 9.69449 5.07057 10.3947 5.07057 11.1165C5.07057 12.8801 5.07239 14.0424 5.13615 14.9366C5.19777 15.8007 5.30583 16.1794 5.40385 16.4046C5.80964 17.3366 6.56118 18.0968 7.52333 18.5156C7.76829 18.6222 8.1668 18.7326 9.04182 18.795C9.94376 18.8593 11.1136 18.861 12.875 18.861C14.6364 18.861 15.8062 18.8593 16.7082 18.795C17.5832 18.7326 17.9817 18.6222 18.2267 18.5156C19.1888 18.0968 19.9404 17.3366 20.3462 16.4046C20.4442 16.1794 20.5522 15.8007 20.6139 14.9366C20.6776 14.0424 20.6794 12.8801 20.6794 11.1165C20.6794 10.3947 20.34 9.69449 19.73 9.237L17.58 7.62476C15.2859 5.90447 14.6907 5.50767 14.1346 5.33134C13.3155 5.07159 12.4345 5.07159 11.6154 5.33134C11.0593 5.50767 10.4641 5.90447 8.17004 7.62476ZM19.325 5.2049C17.2096 3.61859 16.1519 2.82543 15.0093 2.46311C13.6205 2.02271 12.1295 2.02271 10.7407 2.46311C9.59812 2.82543 8.54042 3.61859 6.425 5.2049L4.275 6.81714C2.92154 7.83207 2.125 9.4249 2.125 11.1165C2.125 14.556 2.125 16.2758 2.71165 17.6233C3.42413 19.2599 4.73026 20.5658 6.36708 21.2782C7.71482 21.8647 9.43487 21.8647 12.875 21.8647H12.875C16.3151 21.8647 18.0352 21.8647 19.3829 21.2782C21.0197 20.5658 22.3259 19.2599 23.0384 17.6233C23.625 16.2758 23.625 14.556 23.625 11.1165V11.1165C23.625 9.4249 22.8285 7.83207 21.475 6.81714L19.325 5.2049Z" fill="#A5AFB5"/>
</svg>
