<svg width="35" height="32" viewBox="0 0 35 32" fill="none" xmlns="http://www.w3.org/2000/svg">
<path fill-rule="evenodd" clip-rule="evenodd" d="M9.80347 8.90649L6.31673 11.5211C5.32735 12.263 4.77695 13.3986 4.77695 14.5691C4.77695 17.4293 4.77989 19.3143 4.88329 20.7643C4.98323 22.1657 5.15847 22.7799 5.31743 23.145C5.97551 24.6566 7.19432 25.8894 8.75467 26.5685C9.15193 26.7414 9.7982 26.9206 11.2173 27.0217C12.68 27.126 14.5771 27.1288 17.4337 27.1288C20.2902 27.1288 22.1874 27.126 23.6501 27.0217C25.0691 26.9206 25.7154 26.7414 26.1127 26.5685C27.673 25.8894 28.8918 24.6566 29.5499 23.145C29.7089 22.7799 29.8841 22.1657 29.9841 20.7643C30.0875 19.3143 30.0904 17.4293 30.0904 14.5691C30.0904 13.3986 29.54 12.263 28.5506 11.5211L25.0639 8.90649C21.3435 6.11663 20.3782 5.47313 19.4764 5.18717C18.1481 4.76592 16.7193 4.76592 15.3909 5.18717C14.4891 5.47313 13.5239 6.11663 9.80347 8.90649ZM27.8939 4.98211C24.4632 2.40954 22.7479 1.12325 20.8949 0.535652C18.6427 -0.178551 16.2246 -0.178551 13.9724 0.535652C12.1194 1.12325 10.4041 2.40954 6.97347 4.98211L3.48673 7.59675C1.29178 9.2427 0 11.8259 0 14.5691C0 20.1472 0 22.9362 0.951389 25.1216C2.10685 27.7756 4.22505 29.8935 6.87955 31.0488C9.06521 32 11.8547 32 17.4336 32H17.4337C23.0127 32 25.8021 32 27.9878 31.0488C30.6423 29.8935 32.7605 27.7756 33.916 25.1216C34.8673 22.9362 34.8673 20.1472 34.8673 14.5692V14.5691C34.8673 11.8259 33.5756 9.2427 31.3806 7.59675L27.8939 4.98211Z" fill="#FF5B05"/>
</svg>
